<svg width="26" height="22" viewBox="0 0 26 22" fill="none" xmlns="http://www.w3.org/2000/svg">
<path d="M23.7939 9.99463H1.00538C0.450104 9.99463 0 10.445 0 11C0 11.555 0.450055 12.0054 1.00538 12.0054H23.7939C24.3492 12.0054 24.7993 11.5553 24.7993 11C24.7993 10.4447 24.3492 9.99463 23.7939 9.99463Z" fill="black"/>
<path d="M25.7054 10.2889L15.853 0.436173C15.4602 0.0437365 14.8242 0.0437365 14.4314 0.436173C14.0386 0.828952 14.0386 1.46568 14.4314 1.85812L23.573 11L14.4314 20.1419C14.0386 20.5343 14.0386 21.1711 14.4314 21.5635C14.6278 21.7599 14.8848 21.8581 15.1422 21.8581C15.3996 21.8581 15.6566 21.7599 15.853 21.5635L25.7054 11.7108C26.0981 11.3181 26.0981 10.6813 25.7054 10.2889Z" fill="black"/>
</svg>
