<svg width="17" height="16" viewBox="0 0 17 16" fill="none" xmlns="http://www.w3.org/2000/svg">
<path d="M16.8097 14.8898L13.0806 11.1608C12.8265 10.9067 12.415 10.9067 12.1609 11.1608C11.9068 11.4147 11.9068 11.8266 12.1609 12.0805L15.89 15.8095C16.017 15.9366 16.1833 16.0001 16.3498 16.0001C16.5161 16.0001 16.6826 15.9366 16.8097 15.8095C17.0638 15.5557 17.0638 15.1437 16.8097 14.8898Z" fill="#363636"/>
<path d="M7.04617 0C3.16102 0 0 3.16102 0 7.04617C0 10.9315 3.16102 14.0923 7.04617 14.0923C10.9315 14.0923 14.0923 10.9315 14.0923 7.04617C14.0923 3.16102 10.9315 0 7.04617 0ZM7.04617 12.7915C3.87821 12.7915 1.30083 10.2142 1.30083 7.0462C1.30083 3.87824 3.87821 1.30083 7.04617 1.30083C10.2141 1.30083 12.7915 3.87821 12.7915 7.04617C12.7915 10.2141 10.2141 12.7915 7.04617 12.7915Z" fill="#363636"/>
</svg>
